Coordinates
version=1
nRows=37
nColumns=38
inDegrees=no

Units are S.I. units (second, meters, Newtons, ...)
If the header above contains a line with 'inDegrees', this indicates whether rotational values are in degrees (yes) or radians (no).

endheader
time	pelvis_tilt	pelvis_list	pelvis_rotation	pelvis_tx	pelvis_ty	pelvis_tz	hip_flexion_r	hip_adduction_r	hip_rotation_r	knee_angle_r	ankle_angle_r	subtalar_angle_r	mtp_angle_r	hip_flexion_l	hip_adduction_l	hip_rotation_l	knee_angle_l	ankle_angle_l	subtalar_angle_l	mtp_angle_l	lumbar_extension	lumbar_bending	lumbar_rotation	arm_flex_r	arm_add_r	arm_rot_r	elbow_flex_r	pro_sup_r	wrist_flex_r	wrist_dev_r	arm_flex_l	arm_add_l	arm_rot_l	elbow_flex_l	pro_sup_l	wrist_flex_l	wrist_dev_l
1.92	-0.231002	1.48754	-1.30398	0.683605	-0.395455	1.05388	-0.235502	0.0456049	-0.300664	0.163901	-0.0365662	0	0	0.199029	-0.0693059	-0.312671	0.405905	-0.0799692	0	0	-0.585751	0.116068	-0.0430286	-0.119702	-0.471344	0.246138	0.986791	0.873148	0	0	-0.0710468	-0.45073	0.157926	0.843749	1.22098	0	0
1.93	-0.246462	1.49285	-1.29286	0.68336	-0.40782	1.05227	-0.243475	0.0437507	-0.300943	0.162831	-0.0343532	0	0	0.206807	-0.0582807	-0.307612	0.336679	-0.109345	0	0	-0.581184	0.113795	-0.0371017	-0.126901	-0.469132	0.229733	0.993269	0.893452	0	0	-0.0689667	-0.448737	0.170605	0.834343	1.213	0	0
1.94	-0.282974	1.4996	-1.26019	0.683161	-0.420272	1.05032	-0.2489	0.04297	-0.300345	0.162552	-0.0342201	0	0	0.215113	-0.0474545	-0.295274	0.265478	-0.136632	0	0	-0.574833	0.11008	-0.0418641	-0.115578	-0.474375	0.250181	0.989796	0.885839	0	0	-0.0823158	-0.443145	0.15138	0.834666	1.22358	0	0
1.95	-0.341486	1.50602	-1.20473	0.682971	-0.432754	1.04813	-0.254128	0.0436655	-0.298074	0.162342	-0.0322926	0	0	0.221991	-0.0379073	-0.275291	0.194291	-0.152476	0	0	-0.568332	0.108864	-0.0402005	-0.114934	-0.475626	0.250337	0.991563	0.890194	0	0	-0.085562	-0.440826	0.152867	0.829395	1.22222	0	0
1.96	-0.430733	1.51226	-1.11882	0.682765	-0.445303	1.04563	-0.258483	0.045208	-0.295679	0.163035	-0.031178	0	0	0.228032	-0.0304037	-0.25057	0.124753	-0.156311	0	0	-0.561686	0.108259	-0.038117	-0.114035	-0.477185	0.25146	0.993373	0.890278	0	0	-0.0893691	-0.438605	0.152633	0.825434	1.22236	0	0
1.97	-0.575257	1.51876	-0.97814	0.68242	-0.457951	1.04279	-0.260243	0.0476192	-0.29503	0.165899	-0.0282536	0	0	0.234561	-0.024981	-0.219553	0.0566691	-0.164295	0	0	-0.552724	0.108159	-0.0365468	-0.111523	-0.478408	0.255605	0.992998	0.888431	0	0	-0.0946572	-0.436156	0.149427	0.821484	1.22486	0	0
1.98	-0.7771	1.52348	-0.781401	0.681813	-0.470693	1.03968	-0.260695	0.0505262	-0.296302	0.171018	-0.0258249	0	0	0.242437	-0.0232263	-0.191498	0	-0.167411	0	0	-0.543383	0.108187	-0.03294	-0.109737	-0.479425	0.259265	0.992794	0.888134	0	0	-0.0996041	-0.434573	0.147092	0.818264	1.22637	0	0
1.99	-0.965774	1.52486	-0.596725	0.681345	-0.483801	1.03654	-0.263655	0.0529435	-0.298381	0.177944	-0.00670695	0	0	0.254581	-0.0242491	-0.183937	0	-0.130885	0	0	-0.534903	0.111155	-0.0184514	-0.128158	-0.474825	0.227778	1.00303	0.909159	0	0	-0.0871575	-0.438979	0.184208	0.804527	1.19915	0	0
2	-1.07781	1.52401	-0.490547	0.680789	-0.497252	1.03368	-0.270952	0.0536382	-0.293951	0.184568	0.00690152	0	0	0.263927	-0.0254895	-0.189341	0	-0.0983708	0	0	-0.532686	0.109962	-0.0100113	-0.134795	-0.473066	0.21642	1.0089	0.909202	0	0	-0.0877696	-0.438657	0.187885	0.803008	1.18458	0	0
2.01	-1.17602	1.52337	-0.403009	0.680032	-0.51101	1.03073	-0.277205	0.0516094	-0.278531	0.194568	0.0206152	0	0	0.274406	-0.0281964	-0.210978	0	-0.066856	0	0	-0.533342	0.105179	0.00396133	-0.143141	-0.471615	0.202643	1.01654	0.906418	0	0	-0.0898282	-0.434909	0.180306	0.806448	1.16273	0	0
2.02	-1.18782	1.52229	-0.384973	0.680455	-0.525103	1.02815	-0.290866	0.0530646	-0.295443	0.195763	0.00695515	0	0	0.275773	-0.0230354	-0.186626	0	-0.0916579	0	0	-0.526798	0.106945	-0.0088463	-0.13641	-0.470966	0.217908	1.00861	0.911035	0	0	-0.0966783	-0.441059	0.1854	0.80075	1.18557	0	0
2.03	-1.1802	1.52094	-0.391107	0.680639	-0.539463	1.02571	-0.301121	0.0513568	-0.302012	0.209186	-0.00241921	0	0	0.277089	-0.0199711	-0.177736	0	-0.104518	0	0	-0.523894	0.105897	-0.0155063	-0.132151	-0.469776	0.227933	1.00295	0.91331	0	0	-0.104091	-0.443782	0.181256	0.79891	1.19675	0	0
2.04	-1.13526	1.52027	-0.435772	0.680781	-0.553999	1.02347	-0.311838	0.0474245	-0.30616	0.225123	-0.00940322	0	0	0.277447	-0.0159628	-0.174117	0	-0.110209	0	0	-0.523164	0.102774	-0.0209638	-0.128957	-0.467603	0.234949	0.998103	0.913998	0	0	-0.111045	-0.445601	0.174012	0.797937	1.20265	0	0
2.05	-1.04931	1.51988	-0.522191	0.680956	-0.568731	1.02147	-0.323509	0.0414566	-0.308383	0.242486	-0.0165552	0	0	0.276294	-0.0108715	-0.174583	0	-0.115131	0	0	-0.524356	0.0978679	-0.0263808	-0.125741	-0.464712	0.241838	0.99268	0.913783	0	0	-0.118158	-0.447342	0.16459	0.798131	1.20694	0	0
2.06	-0.927552	1.5178	-0.645297	0.681141	-0.583772	1.0199	-0.334312	0.0336288	-0.308524	0.268218	-0.0242297	0	0	0.271891	-0.00615959	-0.178184	0	-0.124123	0	0	-0.528327	0.0923575	-0.0303519	-0.122333	-0.462162	0.249321	0.986329	0.913647	0	0	-0.124592	-0.44886	0.154503	0.79866	1.21028	0	0
2.07	-0.802733	1.51615	-0.769954	0.681225	-0.599353	1.0184	-0.344804	0.0253376	-0.308927	0.294069	-0.0328647	0	0	0.266637	0.000119239	-0.179856	0	-0.140901	0	0	-0.530958	0.085536	-0.0347572	-0.120418	-0.457777	0.255513	0.977666	0.913575	0	0	-0.130081	-0.451225	0.145847	0.797627	1.21278	0	0
2.08	-0.642555	1.51565	-0.932826	0.681221	-0.615101	1.01729	-0.351333	0.0113464	-0.305606	0.328624	-0.0614187	0	0	0.260188	0.00935589	-0.187618	0	-0.219738	0	0	-0.532164	0.0720862	-0.0474984	-0.10465	-0.449836	0.277758	0.954581	0.918511	0	0	-0.147208	-0.451815	0.11698	0.80246	1.22132	0	0
2.09	-0.502836	1.51608	-1.07267	0.681298	-0.631056	1.01632	-0.354692	-0.00132241	-0.297012	0.362415	-0.0744656	0	0	0.261201	0.017476	-0.199188	0.0279164	-0.240646	0	0	-0.53049	0.0619476	-0.0503138	-0.105849	-0.440436	0.275616	0.941348	0.92168	0	0	-0.146257	-0.45579	0.119735	0.794109	1.21724	0	0
2.1	-0.364454	1.51762	-1.21091	0.681326	-0.64664	1.01574	-0.351578	-0.0146814	-0.282496	0.403042	-0.090472	0	0	0.267215	0.0230091	-0.214011	0.0703718	-0.243885	0	0	-0.527552	0.0511456	-0.0516109	-0.108858	-0.42955	0.268843	0.92927	0.927137	0	0	-0.140836	-0.461075	0.128847	0.783351	1.20846	0	0
2.11	-0.226827	1.52162	-1.34926	0.681368	-0.661775	1.01554	-0.340175	-0.0291147	-0.258816	0.449544	-0.128602	0	0	0.275324	0.0268172	-0.226715	0.112805	-0.227753	0	0	-0.521521	0.0364192	-0.0647254	-0.0900445	-0.425521	0.305546	0.905154	0.898004	0	0	-0.151988	-0.460343	0.0996454	0.782551	1.21979	0	0
2.12	-0.0565521	1.52543	-1.52081	0.681467	-0.67639	1.01584	-0.324416	-0.0444905	-0.224674	0.499925	-0.161888	0	0	0.2807	0.0310064	-0.233	0.151075	-0.206583	0	0	-0.516156	0.0240488	-0.0667263	-0.0880667	-0.41649	0.306363	0.892959	0.892816	0	0	-0.145886	-0.463363	0.101836	0.772422	1.21381	0	0
2.13	0.110644	1.5289	-1.68983	0.681582	-0.690566	1.0166	-0.305397	-0.0581222	-0.171615	0.548718	-0.206731	0	0	0.284153	0.0346587	-0.234509	0.184176	-0.18914	0	0	-0.511012	0.0139548	-0.0653458	-0.0869184	-0.409119	0.306506	0.88254	0.886909	0	0	-0.135895	-0.4659	0.108119	0.761329	1.2076	0	0
2.14	0.245776	1.52987	-1.82711	0.681632	-0.704534	1.01772	-0.285478	-0.0681746	-0.12454	0.596439	-0.240311	0	0	0.283482	0.0374426	-0.236797	0.211791	-0.18343	0	0	-0.50886	0.00658739	-0.0637912	-0.0854624	-0.401439	0.303482	0.873831	0.890219	0	0	-0.128217	-0.466247	0.105502	0.754905	1.20861	0	0
2.15	0.309004	1.5293	-1.89395	0.681709	-0.718462	1.01898	-0.263819	-0.0744287	-0.0875355	0.646721	-0.293184	0	0	0.279338	0.0380867	-0.243369	0.234961	-0.172104	0	0	-0.50811	0.00308208	-0.058275	-0.0847922	-0.400174	0.306788	0.869263	0.879872	0	0	-0.119012	-0.467064	0.109662	0.750298	1.20576	0	0
2.16	0.678177	1.5309	-2.27013	0.681111	-0.732449	1.01744	-0.248735	-0.102393	-0.0631072	0.668381	-0.336992	0	0	0.283987	0.048679	-0.254565	0.255398	-0.155328	0	0	-0.493821	-0.0106999	-0.0530701	-0.0947293	-0.398221	0.303069	0.873523	0.873546	0	0	-0.118066	-0.474401	0.118267	0.755751	1.19846	0	0
2.17	0.248125	1.52701	-1.8448	0.681764	-0.74585	1.02104	-0.217035	-0.0790958	-0.023929	0.74781	-0.401879	0	0	0.262854	0.0327369	-0.263661	0.267946	-0.14516	0	0	-0.511725	0.00624816	-0.0370973	-0.0916459	-0.406155	0.303694	0.875066	0.866867	0	0	-0.0998778	-0.46904	0.126127	0.751464	1.19674	0	0
2.18	0.524504	1.52766	-2.13061	0.680712	-0.7596	1.01925	-0.210413	-0.108399	-0.00655113	0.757164	-0.448672	0	0	0.260984	0.0407599	-0.279732	0.283406	-0.121004	0	0	-0.50107	-0.00327865	-0.0199796	-0.122505	-0.399094	0.256051	0.897681	0.897039	0	0	-0.0866157	-0.48133	0.163785	0.755439	1.17439	0	0
2.19	0.469315	1.52793	-2.08521	0.680036	-0.772736	1.01987	-0.183772	-0.110273	0.0193082	0.802248	-0.491526	0	0	0.250077	0.0360165	-0.290252	0.293683	-0.111266	0	0	-0.501844	-0.00209978	-0.0121007	-0.123242	-0.4052	0.26101	0.905914	0.886772	0	0	-0.0876407	-0.483563	0.157973	0.768205	1.17703	0	0
2.2	0.396217	1.52757	-2.02184	0.679285	-0.785709	1.02055	-0.157903	-0.11041	0.0413641	0.844566	-0.51645	0	0	0.236839	0.0313031	-0.299728	0.300649	-0.0983489	0	0	-0.502824	-0.000131279	-0.00549505	-0.126328	-0.409428	0.257723	0.917271	0.881363	0	0	-0.0900301	-0.485892	0.150849	0.782306	1.18023	0	0
2.21	0.319957	1.52717	-1.95472	0.678522	-0.798594	1.02136	-0.132168	-0.109552	0.0568234	0.884788	-0.51484	0	0	0.222292	0.0267465	-0.309316	0.304666	-0.0864923	0	0	-0.502608	0.00218014	-0.00114903	-0.128158	-0.413451	0.25522	0.927107	0.881409	0	0	-0.0941671	-0.488375	0.142041	0.797228	1.18418	0	0
2.22	0.247944	1.52638	-1.89123	0.677692	-0.811384	1.02243	-0.106599	-0.108749	0.065052	0.92303	-0.488001	0	0	0.206535	0.0222493	-0.320493	0.306691	-0.0731439	0	0	-0.502182	0.00380459	0.000339655	-0.127241	-0.417305	0.254912	0.935262	0.886531	0	0	-0.100793	-0.490581	0.128075	0.813618	1.19027	0	0
2.23	0.179099	1.5236	-1.82878	0.676914	-0.824116	1.02394	-0.0835892	-0.108336	0.0667615	0.958025	-0.44691	0	0	0.187939	0.018538	-0.331965	0.306756	-0.0625074	0	0	-0.503047	0.00568688	-0.00253144	-0.124272	-0.420002	0.25499	0.94204	0.894239	0	0	-0.108797	-0.492941	0.111936	0.829876	1.19739	0	0
2.24	0.123505	1.51874	-1.77718	0.67623	-0.8368	1.02582	-0.0633472	-0.10849	0.0638494	0.988367	-0.398256	0	0	0.16682	0.0156557	-0.343526	0.305387	-0.0546697	0	0	-0.505666	0.00778897	-0.00953806	-0.119509	-0.421165	0.255215	0.946737	0.903488	0	0	-0.117674	-0.494782	0.0926939	0.845829	1.20559	0	0
2.25	0.0957541	1.51473	-1.75121	0.675675	-0.849419	1.0278	-0.0426556	-0.109683	0.0562784	1.0139	-0.357841	0	0	0.14685	0.0141346	-0.353103	0.30292	-0.0510056	0	0	-0.506469	0.00993463	-0.0175905	-0.114801	-0.422191	0.257002	0.948779	0.910653	0	0	-0.123295	-0.497253	0.0786861	0.857988	1.21279	0	0
2.26	0.0720472	1.51183	-1.72729	0.675115	-0.861845	1.02988	-0.0217408	-0.109684	0.0463261	1.03455	-0.308218	0	0	0.1286	0.0126947	-0.359641	0.300502	-0.0466953	0	0	-0.505935	0.0134727	-0.0235644	-0.115875	-0.417784	0.241709	0.951455	0.942764	0	0	-0.121889	-0.501768	0.0769231	0.864935	1.21355	0	0
2.27	0.0348436	1.5082	-1.68774	0.674721	-0.874229	1.03219	-0.002699	-0.107531	0.0360919	1.04947	-0.267812	0	0	0.110027	0.0106263	-0.36137	0.298998	-0.0471612	0	0	-0.506512	0.0170689	-0.0365674	-0.104955	-0.42073	0.253815	0.948227	0.951482	0	0	-0.128605	-0.502756	0.055471	0.876798	1.22733	0	0
2.28	-0.00790439	1.5045	-1.64414	0.674446	-0.886283	1.03454	0.0175178	-0.10541	0.0266543	1.0605	-0.263217	0	0	0.0915688	0.0083723	-0.360782	0.297398	-0.046454	0	0	-0.507524	0.0227637	-0.0400321	-0.102686	-0.427598	0.257727	0.952317	0.94674	0	0	-0.121954	-0.507085	0.0593414	0.881176	1.22639	0	0
